<svg width="217" height="33" viewBox="0 0 217 33" fill="none" xmlns="http://www.w3.org/2000/svg">
<path d="M51.216 24H47.88C47.688 24 47.536 23.992 47.424 23.976C47.312 23.944 47.224 23.896 47.16 23.832C47.096 23.768 47.048 23.672 47.016 23.544C46.984 23.416 46.968 23.248 46.968 23.04C46.968 22.8 46.976 22.536 46.992 22.248C47.008 21.944 47.024 21.64 47.04 21.336C47.056 21.032 47.072 20.752 47.088 20.496L47.352 21.528L46.68 21.504L47.136 20.4C47.024 21.248 46.752 21.96 46.32 22.536C45.904 23.112 45.328 23.544 44.592 23.832C43.872 24.104 42.992 24.24 41.952 24.24C41.184 24.24 40.496 24.168 39.888 24.024C39.296 23.88 38.792 23.648 38.376 23.328C37.976 23.008 37.672 22.6 37.464 22.104C37.256 21.592 37.152 20.976 37.152 20.256C37.152 19.264 37.376 18.456 37.824 17.832C38.288 17.192 38.976 16.728 39.888 16.44C40.816 16.152 41.968 16.008 43.344 16.008C44.144 16.008 44.88 16.032 45.552 16.08C46.24 16.112 46.808 16.184 47.256 16.296V18.12C46.728 18.008 46.184 17.944 45.624 17.928C45.064 17.912 44.488 17.904 43.896 17.904C43.416 17.904 42.992 17.944 42.624 18.024C42.272 18.088 41.976 18.192 41.736 18.336C41.512 18.48 41.344 18.664 41.232 18.888C41.12 19.112 41.064 19.384 41.064 19.704C41.064 19.976 41.104 20.224 41.184 20.448C41.28 20.656 41.424 20.832 41.616 20.976C41.808 21.104 42.056 21.208 42.36 21.288C42.664 21.352 43.032 21.384 43.464 21.384C44.008 21.384 44.488 21.312 44.904 21.168C45.32 21.008 45.68 20.792 45.984 20.52C46.288 20.248 46.52 19.92 46.68 19.536C46.84 19.136 46.92 18.68 46.92 18.168C46.92 17.848 46.92 17.496 46.92 17.112C46.936 16.712 46.944 16.328 46.944 15.96C46.96 15.592 46.968 15.248 46.968 14.928C46.968 14.544 46.912 14.208 46.8 13.92C46.704 13.616 46.544 13.36 46.32 13.152C46.112 12.944 45.84 12.792 45.504 12.696C45.168 12.584 44.76 12.528 44.28 12.528C43.768 12.528 43.328 12.576 42.96 12.672C42.608 12.768 42.312 12.928 42.072 13.152C41.848 13.36 41.688 13.632 41.592 13.968C41.496 14.288 41.456 14.672 41.472 15.12C41.232 15.104 40.96 15.096 40.656 15.096C40.368 15.096 40.056 15.096 39.72 15.096C39.464 15.096 39.208 15.096 38.952 15.096C38.696 15.096 38.448 15.104 38.208 15.12C37.984 15.12 37.784 15.136 37.608 15.168C37.576 14.496 37.624 13.856 37.752 13.248C37.896 12.64 38.128 12.096 38.448 11.616C38.784 11.12 39.216 10.696 39.744 10.344C40.288 9.976 40.928 9.696 41.664 9.504C42.4 9.312 43.248 9.216 44.208 9.216C45.424 9.216 46.464 9.352 47.328 9.624C48.192 9.88 48.888 10.256 49.416 10.752C49.96 11.248 50.352 11.84 50.592 12.528C50.832 13.216 50.952 13.976 50.952 14.808C50.952 15.4 50.944 15.96 50.928 16.488C50.912 17.016 50.896 17.536 50.88 18.048C50.88 18.56 50.88 19.112 50.88 19.704C50.88 20.104 50.888 20.528 50.904 20.976C50.92 21.408 50.944 21.824 50.976 22.224C51.008 22.624 51.04 22.976 51.072 23.28C51.12 23.584 51.168 23.824 51.216 24ZM60.8687 21.144C61.4287 21.144 61.8847 21.12 62.2367 21.072C62.6047 21.008 62.9007 20.928 63.1247 20.832C63.3647 20.72 63.5327 20.568 63.6287 20.376C63.7247 20.184 63.7727 19.984 63.7727 19.776C63.7727 19.552 63.7087 19.36 63.5807 19.2C63.4687 19.024 63.2767 18.864 63.0047 18.72C62.7327 18.576 62.3407 18.456 61.8287 18.36C61.3327 18.248 60.6847 18.16 59.8847 18.096C58.7167 17.968 57.7487 17.776 56.9807 17.52C56.2287 17.248 55.6287 16.92 55.1807 16.536C54.7487 16.152 54.4367 15.712 54.2447 15.216C54.0687 14.704 53.9807 14.144 53.9807 13.536C53.9807 12.784 54.1167 12.136 54.3887 11.592C54.6607 11.048 55.0687 10.6 55.6127 10.248C56.1727 9.896 56.8767 9.632 57.7247 9.456C58.5887 9.28 59.5887 9.192 60.7247 9.192C61.6687 9.192 62.5007 9.248 63.2207 9.36C63.9407 9.472 64.5567 9.648 65.0687 9.888C65.5967 10.112 66.0287 10.4 66.3647 10.752C66.7007 11.088 66.9487 11.488 67.1087 11.952C67.2687 12.416 67.3487 12.936 67.3487 13.512C67.3487 13.608 67.3407 13.696 67.3247 13.776C67.3247 13.84 67.3247 13.912 67.3247 13.992C67.3247 14.072 67.3167 14.16 67.3007 14.256C67.1567 14.224 66.9727 14.208 66.7487 14.208C66.5407 14.208 66.3167 14.208 66.0767 14.208C65.8527 14.208 65.6207 14.208 65.3807 14.208C65.0287 14.208 64.7007 14.208 64.3967 14.208C64.0927 14.208 63.8447 14.208 63.6527 14.208C63.6687 14.192 63.6767 14.144 63.6767 14.064C63.6767 13.984 63.6767 13.936 63.6767 13.92C63.6767 13.648 63.6207 13.408 63.5087 13.2C63.3967 12.992 63.2287 12.824 63.0047 12.696C62.7967 12.568 62.5007 12.472 62.1167 12.408C61.7327 12.328 61.2607 12.288 60.7007 12.288C60.1567 12.288 59.7007 12.32 59.3327 12.384C58.9647 12.448 58.6767 12.536 58.4687 12.648C58.2607 12.744 58.1087 12.872 58.0127 13.032C57.9167 13.192 57.8687 13.384 57.8687 13.608C57.8687 13.768 57.9087 13.936 57.9887 14.112C58.0847 14.272 58.2687 14.432 58.5407 14.592C58.8127 14.736 59.2047 14.864 59.7167 14.976C60.2287 15.088 60.9167 15.192 61.7807 15.288C62.9007 15.416 63.8287 15.6 64.5647 15.84C65.3167 16.08 65.9087 16.384 66.3407 16.752C66.7887 17.12 67.1087 17.56 67.3007 18.072C67.4927 18.584 67.5887 19.176 67.5887 19.848C67.5887 20.536 67.4607 21.16 67.2047 21.72C66.9647 22.264 66.5727 22.728 66.0287 23.112C65.4847 23.496 64.7887 23.792 63.9407 24C63.0927 24.192 62.0607 24.288 60.8447 24.288C59.7727 24.288 58.8527 24.224 58.0847 24.096C57.3327 23.984 56.6847 23.8 56.1407 23.544C55.5967 23.288 55.1647 22.984 54.8447 22.632C54.5247 22.264 54.2847 21.848 54.1247 21.384C53.9807 20.904 53.9087 20.376 53.9087 19.8C53.9087 19.72 53.9087 19.656 53.9087 19.608C53.9247 19.544 53.9327 19.472 53.9327 19.392C53.9327 19.296 53.9327 19.208 53.9327 19.128C54.0767 19.144 54.2527 19.16 54.4607 19.176C54.6687 19.192 54.8847 19.2 55.1087 19.2C55.3487 19.2 55.6047 19.2 55.8767 19.2C56.2127 19.2 56.5327 19.2 56.8367 19.2C57.1407 19.184 57.4127 19.168 57.6527 19.152C57.6367 19.216 57.6287 19.272 57.6287 19.32C57.6287 19.368 57.6287 19.408 57.6287 19.44C57.6287 19.728 57.6847 19.976 57.7967 20.184C57.9087 20.392 58.0927 20.568 58.3487 20.712C58.6047 20.856 58.9407 20.968 59.3567 21.048C59.7727 21.112 60.2767 21.144 60.8687 21.144ZM69.2479 9.48C69.7119 9.48 70.2159 9.488 70.7599 9.504C71.3199 9.504 71.9039 9.512 72.5119 9.528C73.1359 9.528 73.7759 9.528 74.4319 9.528C75.0879 9.528 75.7359 9.528 76.3759 9.528C77.0319 9.528 77.6719 9.528 78.2959 9.528C78.9199 9.512 79.5199 9.496 80.0959 9.48C80.0959 9.832 80.0879 10.208 80.0719 10.608C80.0559 11.008 80.0399 11.416 80.0239 11.832C80.0239 12.232 80.0239 12.608 80.0239 12.96C79.7039 12.944 79.3359 12.936 78.9199 12.936C78.5039 12.92 78.0639 12.912 77.5999 12.912C77.1519 12.896 76.6799 12.888 76.1839 12.888C75.6879 12.888 75.1839 12.88 74.6719 12.864C74.1599 12.848 73.6559 12.84 73.1599 12.84C72.6799 12.84 72.1999 12.84 71.7199 12.84C71.2559 12.824 70.8159 12.816 70.3999 12.816C69.9999 12.816 69.6319 12.816 69.2959 12.816C69.2959 12.576 69.2959 12.312 69.2959 12.024C69.2959 11.736 69.2959 11.44 69.2959 11.136C69.2959 10.832 69.2879 10.536 69.2719 10.248C69.2559 9.96 69.2479 9.704 69.2479 9.48ZM71.0719 6.408C71.3919 6.424 71.7279 6.44 72.0799 6.456C72.4319 6.456 72.7839 6.456 73.1359 6.456C73.3439 6.456 73.5599 6.456 73.7839 6.456C74.0079 6.456 74.2319 6.456 74.4559 6.456C74.6959 6.44 74.9119 6.424 75.1039 6.408C75.0879 7.272 75.0719 8.168 75.0559 9.096C75.0399 10.024 75.0239 10.992 75.0079 12C74.9919 12.992 74.9759 14.048 74.9599 15.168C74.9599 16.272 74.9599 17.432 74.9599 18.648C74.9599 19.128 75.0239 19.512 75.1519 19.8C75.2959 20.088 75.5279 20.304 75.8479 20.448C76.1839 20.576 76.6399 20.64 77.2159 20.64C77.7439 20.64 78.2399 20.592 78.7039 20.496C79.1679 20.384 79.5759 20.264 79.9279 20.136C79.9439 20.344 79.9679 20.576 79.9999 20.832C80.0479 21.088 80.0879 21.344 80.1199 21.6C80.1679 21.856 80.2079 22.104 80.2399 22.344C80.2719 22.568 80.3039 22.792 80.3359 23.016C80.3839 23.24 80.4239 23.448 80.4559 23.64C80.0239 23.752 79.6159 23.848 79.2319 23.928C78.8479 24.008 78.4479 24.064 78.0319 24.096C77.6319 24.144 77.1759 24.168 76.6639 24.168C75.8159 24.168 75.0719 24.088 74.4319 23.928C73.8079 23.768 73.2719 23.544 72.8239 23.256C72.3919 22.952 72.0399 22.592 71.7679 22.176C71.4959 21.744 71.2959 21.272 71.1679 20.76C71.0559 20.248 70.9999 19.696 70.9999 19.104C70.9999 18.576 70.9999 17.968 70.9999 17.28C70.9999 16.592 71.0079 15.88 71.0239 15.144C71.0399 14.392 71.0479 13.624 71.0479 12.84C71.0479 12.056 71.0559 11.288 71.0719 10.536C71.0879 9.768 71.0879 9.04 71.0719 8.352C71.0719 7.648 71.0719 7 71.0719 6.408ZM87.3309 24H83.0589C83.0909 22.976 83.1069 21.888 83.1069 20.736C83.1069 19.584 83.1069 18.232 83.1069 16.68C83.1069 15.144 83.1069 13.816 83.1069 12.696C83.1069 11.576 83.0909 10.504 83.0589 9.48H86.5869C86.5549 9.944 86.5309 10.448 86.5149 10.992C86.5149 11.52 86.5069 12.088 86.4909 12.696C86.4909 13.304 86.4749 13.976 86.4429 14.712L86.2509 12.6L86.8029 12.648L86.2989 14.664C86.3789 13.688 86.5469 12.864 86.8029 12.192C87.0589 11.504 87.3869 10.952 87.7869 10.536C88.1869 10.104 88.6509 9.792 89.1789 9.6C89.7229 9.392 90.3469 9.288 91.0509 9.288C91.4189 9.288 91.7869 9.32 92.1549 9.384C92.5229 9.432 92.8669 9.512 93.1869 9.624C93.1549 9.848 93.1149 10.12 93.0669 10.44C93.0349 10.76 92.9949 11.096 92.9469 11.448C92.9149 11.8 92.8829 12.144 92.8509 12.48C92.8189 12.816 92.8029 13.12 92.8029 13.392C92.4989 13.28 92.1549 13.2 91.7709 13.152C91.4029 13.088 91.0349 13.056 90.6669 13.056C90.0589 13.056 89.5309 13.136 89.0829 13.296C88.6509 13.44 88.2989 13.672 88.0269 13.992C87.7709 14.312 87.5789 14.752 87.4509 15.312C87.3229 15.872 87.2589 16.584 87.2589 17.448C87.2589 17.992 87.2589 18.568 87.2589 19.176C87.2589 19.768 87.2589 20.36 87.2589 20.952C87.2589 21.544 87.2669 22.096 87.2829 22.608C87.2989 23.12 87.3149 23.584 87.3309 24ZM105.24 16.632C105.24 15.912 105.152 15.304 104.976 14.808C104.8 14.296 104.552 13.88 104.232 13.56C103.912 13.224 103.52 12.984 103.056 12.84C102.608 12.696 102.104 12.624 101.544 12.624C100.984 12.624 100.472 12.696 100.008 12.84C99.56 12.984 99.176 13.216 98.856 13.536C98.536 13.856 98.288 14.272 98.112 14.784C97.936 15.296 97.848 15.912 97.848 16.632C97.848 17.352 97.936 17.984 98.112 18.528C98.288 19.056 98.528 19.496 98.832 19.848C99.152 20.184 99.536 20.44 99.984 20.616C100.448 20.792 100.968 20.88 101.544 20.88C102.104 20.88 102.608 20.792 103.056 20.616C103.52 20.44 103.912 20.176 104.232 19.824C104.568 19.472 104.816 19.032 104.976 18.504C105.152 17.976 105.24 17.352 105.24 16.632ZM109.176 16.512C109.176 17.712 109 18.792 108.648 19.752C108.296 20.712 107.784 21.536 107.112 22.224C106.44 22.912 105.632 23.432 104.688 23.784C103.76 24.136 102.712 24.312 101.544 24.312C100.36 24.312 99.296 24.136 98.352 23.784C97.424 23.432 96.632 22.912 95.976 22.224C95.336 21.536 94.84 20.712 94.488 19.752C94.152 18.792 93.984 17.712 93.984 16.512C93.984 15.312 94.16 14.256 94.512 13.344C94.88 12.416 95.392 11.64 96.048 11.016C96.72 10.392 97.52 9.928 98.448 9.624C99.376 9.304 100.408 9.144 101.544 9.144C102.68 9.144 103.712 9.304 104.64 9.624C105.568 9.928 106.368 10.392 107.04 11.016C107.712 11.64 108.232 12.416 108.6 13.344C108.984 14.256 109.176 15.312 109.176 16.512ZM129.65 16.68C129.65 15.928 129.578 15.28 129.434 14.736C129.306 14.192 129.106 13.752 128.834 13.416C128.578 13.064 128.258 12.808 127.874 12.648C127.49 12.472 127.042 12.384 126.53 12.384C126.002 12.384 125.514 12.464 125.066 12.624C124.618 12.768 124.226 12.984 123.89 13.272C123.554 13.56 123.29 13.936 123.098 14.4C122.906 14.864 122.81 15.424 122.81 16.08V20.736L122.378 19.872C122.714 20.096 123.074 20.296 123.458 20.472C123.858 20.648 124.29 20.792 124.754 20.904C125.234 21 125.754 21.048 126.314 21.048C126.89 21.048 127.386 20.968 127.802 20.808C128.218 20.632 128.562 20.376 128.834 20.04C129.122 19.688 129.33 19.24 129.458 18.696C129.586 18.152 129.65 17.48 129.65 16.68ZM122.93 27.336H118.778C118.794 26.792 118.802 26.184 118.802 25.512C118.818 24.84 118.826 24.128 118.826 23.376C118.842 22.608 118.85 21.824 118.85 21.024C118.85 20.224 118.85 19.424 118.85 18.624C118.85 17.824 118.85 17.056 118.85 16.32C118.85 15.584 118.85 14.912 118.85 14.304C118.85 13.68 118.842 13.088 118.826 12.528C118.826 11.968 118.818 11.44 118.802 10.944C118.802 10.448 118.802 9.96 118.802 9.48H122.906C122.906 9.704 122.898 9.92 122.882 10.128C122.882 10.336 122.882 10.552 122.882 10.776C122.882 11.096 122.866 11.432 122.834 11.784C122.802 12.12 122.786 12.52 122.786 12.984L122.642 11.712L123.218 11.856L122.594 12.888C122.754 12.36 122.978 11.872 123.266 11.424C123.554 10.976 123.922 10.592 124.37 10.272C124.834 9.936 125.362 9.68 125.954 9.504C126.562 9.312 127.25 9.216 128.018 9.216C128.77 9.216 129.442 9.328 130.034 9.552C130.642 9.76 131.17 10.064 131.618 10.464C132.066 10.864 132.434 11.376 132.722 12C133.01 12.608 133.226 13.304 133.37 14.088C133.53 14.856 133.61 15.72 133.61 16.68C133.61 17.88 133.474 18.952 133.202 19.896C132.946 20.84 132.57 21.632 132.074 22.272C131.594 22.912 131.002 23.4 130.298 23.736C129.594 24.072 128.81 24.24 127.946 24.24C127.306 24.24 126.722 24.184 126.194 24.072C125.666 23.96 125.194 23.8 124.778 23.592C124.362 23.384 123.994 23.144 123.674 22.872C123.354 22.584 123.09 22.288 122.882 21.984C122.69 21.664 122.53 21.336 122.402 21L123.266 22.032L122.594 22.176L122.762 20.88C122.81 21.296 122.842 21.68 122.858 22.032C122.874 22.384 122.882 22.728 122.882 23.064C122.882 23.4 122.882 23.768 122.882 24.168C122.882 24.712 122.882 25.24 122.882 25.752C122.898 26.264 122.914 26.792 122.93 27.336ZM149.888 24H146.552C146.36 24 146.208 23.992 146.096 23.976C145.984 23.944 145.896 23.896 145.832 23.832C145.768 23.768 145.72 23.672 145.688 23.544C145.656 23.416 145.64 23.248 145.64 23.04C145.64 22.8 145.648 22.536 145.664 22.248C145.68 21.944 145.696 21.64 145.712 21.336C145.728 21.032 145.744 20.752 145.76 20.496L146.024 21.528L145.352 21.504L145.808 20.4C145.696 21.248 145.424 21.96 144.992 22.536C144.576 23.112 144 23.544 143.264 23.832C142.544 24.104 141.664 24.24 140.624 24.24C139.856 24.24 139.168 24.168 138.56 24.024C137.968 23.88 137.464 23.648 137.048 23.328C136.648 23.008 136.344 22.6 136.136 22.104C135.928 21.592 135.824 20.976 135.824 20.256C135.824 19.264 136.048 18.456 136.496 17.832C136.96 17.192 137.648 16.728 138.56 16.44C139.488 16.152 140.64 16.008 142.016 16.008C142.816 16.008 143.552 16.032 144.224 16.08C144.912 16.112 145.48 16.184 145.928 16.296V18.12C145.4 18.008 144.856 17.944 144.296 17.928C143.736 17.912 143.16 17.904 142.568 17.904C142.088 17.904 141.664 17.944 141.296 18.024C140.944 18.088 140.648 18.192 140.408 18.336C140.184 18.48 140.016 18.664 139.904 18.888C139.792 19.112 139.736 19.384 139.736 19.704C139.736 19.976 139.776 20.224 139.856 20.448C139.952 20.656 140.096 20.832 140.288 20.976C140.48 21.104 140.728 21.208 141.032 21.288C141.336 21.352 141.704 21.384 142.136 21.384C142.68 21.384 143.16 21.312 143.576 21.168C143.992 21.008 144.352 20.792 144.656 20.52C144.96 20.248 145.192 19.92 145.352 19.536C145.512 19.136 145.592 18.68 145.592 18.168C145.592 17.848 145.592 17.496 145.592 17.112C145.608 16.712 145.616 16.328 145.616 15.96C145.632 15.592 145.64 15.248 145.64 14.928C145.64 14.544 145.584 14.208 145.472 13.92C145.376 13.616 145.216 13.36 144.992 13.152C144.784 12.944 144.512 12.792 144.176 12.696C143.84 12.584 143.432 12.528 142.952 12.528C142.44 12.528 142 12.576 141.632 12.672C141.28 12.768 140.984 12.928 140.744 13.152C140.52 13.36 140.36 13.632 140.264 13.968C140.168 14.288 140.128 14.672 140.144 15.12C139.904 15.104 139.632 15.096 139.328 15.096C139.04 15.096 138.728 15.096 138.392 15.096C138.136 15.096 137.88 15.096 137.624 15.096C137.368 15.096 137.12 15.104 136.88 15.12C136.656 15.12 136.456 15.136 136.28 15.168C136.248 14.496 136.296 13.856 136.424 13.248C136.568 12.64 136.8 12.096 137.12 11.616C137.456 11.12 137.888 10.696 138.416 10.344C138.96 9.976 139.6 9.696 140.336 9.504C141.072 9.312 141.92 9.216 142.88 9.216C144.096 9.216 145.136 9.352 146 9.624C146.864 9.88 147.56 10.256 148.088 10.752C148.632 11.248 149.024 11.84 149.264 12.528C149.504 13.216 149.624 13.976 149.624 14.808C149.624 15.4 149.616 15.96 149.6 16.488C149.584 17.016 149.568 17.536 149.552 18.048C149.552 18.56 149.552 19.112 149.552 19.704C149.552 20.104 149.56 20.528 149.576 20.976C149.592 21.408 149.616 21.824 149.648 22.224C149.68 22.624 149.712 22.976 149.744 23.28C149.792 23.584 149.84 23.824 149.888 24ZM157.405 24H153.301C153.317 23.296 153.325 22.584 153.325 21.864C153.341 21.144 153.349 20.408 153.349 19.656C153.365 18.904 153.373 18.128 153.373 17.328C153.373 16.528 153.373 15.72 153.373 14.904C153.373 13.992 153.373 13.136 153.373 12.336C153.373 11.52 153.365 10.728 153.349 9.96C153.349 9.192 153.341 8.44 153.325 7.704C153.325 6.952 153.317 6.192 153.301 5.424H157.405C157.389 6.144 157.373 6.864 157.357 7.584C157.357 8.304 157.357 9.048 157.357 9.816C157.357 10.568 157.357 11.376 157.357 12.24C157.357 13.104 157.357 14.048 157.357 15.072C157.357 15.968 157.357 16.8 157.357 17.568C157.357 18.336 157.357 19.08 157.357 19.8C157.357 20.52 157.357 21.224 157.357 21.912C157.373 22.584 157.389 23.28 157.405 24ZM167.682 24.312C166.77 24.312 165.93 24.208 165.162 24C164.394 23.808 163.714 23.512 163.122 23.112C162.53 22.712 162.026 22.216 161.61 21.624C161.194 21.016 160.874 20.312 160.65 19.512C160.442 18.696 160.338 17.776 160.338 16.752C160.338 15.44 160.506 14.304 160.842 13.344C161.194 12.384 161.69 11.6 162.33 10.992C162.986 10.368 163.77 9.904 164.682 9.6C165.594 9.296 166.618 9.144 167.754 9.144C168.698 9.144 169.53 9.24 170.25 9.432C170.986 9.624 171.61 9.896 172.122 10.248C172.634 10.6 173.042 11.024 173.346 11.52C173.65 12.016 173.874 12.584 174.018 13.224C174.162 13.848 174.234 14.528 174.234 15.264C174.234 15.632 174.234 15.968 174.234 16.272C174.234 16.576 174.226 16.856 174.21 17.112C174.194 17.368 174.178 17.608 174.162 17.832C173.858 17.832 173.49 17.832 173.058 17.832C172.642 17.816 172.186 17.8 171.69 17.784C171.21 17.768 170.706 17.768 170.178 17.784C169.666 17.784 169.13 17.784 168.57 17.784C167.914 17.784 167.282 17.784 166.674 17.784C166.066 17.768 165.498 17.768 164.97 17.784C164.442 17.8 163.986 17.808 163.602 17.808L163.722 15.672C164.122 15.672 164.538 15.68 164.97 15.696C165.402 15.696 165.85 15.696 166.314 15.696C166.778 15.696 167.226 15.704 167.658 15.72C168.106 15.72 168.546 15.712 168.978 15.696C169.41 15.68 169.818 15.672 170.202 15.672C170.586 15.656 170.946 15.656 171.282 15.672L170.466 16.392C170.498 16.264 170.53 16.096 170.562 15.888C170.594 15.664 170.61 15.36 170.61 14.976C170.61 14.48 170.554 14.056 170.442 13.704C170.33 13.336 170.154 13.032 169.914 12.792C169.674 12.552 169.362 12.376 168.978 12.264C168.61 12.136 168.154 12.072 167.61 12.072C167.018 12.072 166.498 12.152 166.05 12.312C165.618 12.472 165.25 12.736 164.946 13.104C164.642 13.456 164.418 13.952 164.274 14.592C164.13 15.232 164.058 16.032 164.058 16.992C164.058 17.808 164.13 18.504 164.274 19.08C164.434 19.64 164.658 20.088 164.946 20.424C165.25 20.76 165.634 21 166.098 21.144C166.562 21.288 167.106 21.36 167.73 21.36C168.162 21.36 168.546 21.336 168.882 21.288C169.218 21.24 169.498 21.16 169.722 21.048C169.946 20.92 170.122 20.776 170.25 20.616C170.378 20.44 170.474 20.248 170.538 20.04C170.602 19.816 170.634 19.576 170.634 19.32C170.81 19.336 170.986 19.352 171.162 19.368C171.354 19.368 171.562 19.376 171.786 19.392C172.01 19.408 172.234 19.416 172.458 19.416C172.826 19.416 173.154 19.408 173.442 19.392C173.746 19.36 174.002 19.336 174.21 19.32C174.242 19.832 174.218 20.312 174.138 20.76C174.074 21.208 173.946 21.624 173.754 22.008C173.562 22.376 173.306 22.704 172.986 22.992C172.682 23.28 172.282 23.52 171.786 23.712C171.29 23.904 170.706 24.048 170.034 24.144C169.362 24.256 168.578 24.312 167.682 24.312ZM176.193 9.48C176.657 9.48 177.161 9.488 177.705 9.504C178.265 9.504 178.849 9.512 179.457 9.528C180.081 9.528 180.721 9.528 181.377 9.528C182.033 9.528 182.681 9.528 183.321 9.528C183.977 9.528 184.617 9.528 185.241 9.528C185.865 9.512 186.465 9.496 187.041 9.48C187.041 9.832 187.033 10.208 187.017 10.608C187.001 11.008 186.985 11.416 186.969 11.832C186.969 12.232 186.969 12.608 186.969 12.96C186.649 12.944 186.281 12.936 185.865 12.936C185.449 12.92 185.009 12.912 184.545 12.912C184.097 12.896 183.625 12.888 183.129 12.888C182.633 12.888 182.129 12.88 181.617 12.864C181.105 12.848 180.601 12.84 180.105 12.84C179.625 12.84 179.145 12.84 178.665 12.84C178.201 12.824 177.761 12.816 177.345 12.816C176.945 12.816 176.577 12.816 176.241 12.816C176.241 12.576 176.241 12.312 176.241 12.024C176.241 11.736 176.241 11.44 176.241 11.136C176.241 10.832 176.233 10.536 176.217 10.248C176.201 9.96 176.193 9.704 176.193 9.48ZM178.017 6.408C178.337 6.424 178.673 6.44 179.025 6.456C179.377 6.456 179.729 6.456 180.081 6.456C180.289 6.456 180.505 6.456 180.729 6.456C180.953 6.456 181.177 6.456 181.401 6.456C181.641 6.44 181.857 6.424 182.049 6.408C182.033 7.272 182.017 8.168 182.001 9.096C181.985 10.024 181.969 10.992 181.953 12C181.937 12.992 181.921 14.048 181.905 15.168C181.905 16.272 181.905 17.432 181.905 18.648C181.905 19.128 181.969 19.512 182.097 19.8C182.241 20.088 182.473 20.304 182.793 20.448C183.129 20.576 183.585 20.64 184.161 20.64C184.689 20.64 185.185 20.592 185.649 20.496C186.113 20.384 186.521 20.264 186.873 20.136C186.889 20.344 186.913 20.576 186.945 20.832C186.993 21.088 187.033 21.344 187.065 21.6C187.113 21.856 187.153 22.104 187.185 22.344C187.217 22.568 187.249 22.792 187.281 23.016C187.329 23.24 187.369 23.448 187.401 23.64C186.969 23.752 186.561 23.848 186.177 23.928C185.793 24.008 185.393 24.064 184.977 24.096C184.577 24.144 184.121 24.168 183.609 24.168C182.761 24.168 182.017 24.088 181.377 23.928C180.753 23.768 180.217 23.544 179.769 23.256C179.337 22.952 178.985 22.592 178.713 22.176C178.441 21.744 178.241 21.272 178.113 20.76C178.001 20.248 177.945 19.696 177.945 19.104C177.945 18.576 177.945 17.968 177.945 17.28C177.945 16.592 177.953 15.88 177.969 15.144C177.985 14.392 177.993 13.624 177.993 12.84C177.993 12.056 178.001 11.288 178.017 10.536C178.033 9.768 178.033 9.04 178.017 8.352C178.017 7.648 178.017 7 178.017 6.408ZM188.732 9.48C189.196 9.48 189.7 9.488 190.244 9.504C190.804 9.504 191.388 9.512 191.996 9.528C192.62 9.528 193.26 9.528 193.916 9.528C194.572 9.528 195.22 9.528 195.86 9.528C196.516 9.528 197.156 9.528 197.78 9.528C198.404 9.512 199.004 9.496 199.58 9.48C199.58 9.832 199.572 10.208 199.556 10.608C199.54 11.008 199.524 11.416 199.508 11.832C199.508 12.232 199.508 12.608 199.508 12.96C199.188 12.944 198.82 12.936 198.404 12.936C197.988 12.92 197.548 12.912 197.084 12.912C196.636 12.896 196.164 12.888 195.668 12.888C195.172 12.888 194.668 12.88 194.156 12.864C193.644 12.848 193.14 12.84 192.644 12.84C192.164 12.84 191.684 12.84 191.204 12.84C190.74 12.824 190.3 12.816 189.884 12.816C189.484 12.816 189.116 12.816 188.78 12.816C188.78 12.576 188.78 12.312 188.78 12.024C188.78 11.736 188.78 11.44 188.78 11.136C188.78 10.832 188.772 10.536 188.756 10.248C188.74 9.96 188.732 9.704 188.732 9.48ZM190.556 6.408C190.876 6.424 191.212 6.44 191.564 6.456C191.916 6.456 192.268 6.456 192.62 6.456C192.828 6.456 193.044 6.456 193.268 6.456C193.492 6.456 193.716 6.456 193.94 6.456C194.18 6.44 194.396 6.424 194.588 6.408C194.572 7.272 194.556 8.168 194.54 9.096C194.524 10.024 194.508 10.992 194.492 12C194.476 12.992 194.46 14.048 194.444 15.168C194.444 16.272 194.444 17.432 194.444 18.648C194.444 19.128 194.508 19.512 194.636 19.8C194.78 20.088 195.012 20.304 195.332 20.448C195.668 20.576 196.124 20.64 196.7 20.64C197.228 20.64 197.724 20.592 198.188 20.496C198.652 20.384 199.06 20.264 199.412 20.136C199.428 20.344 199.452 20.576 199.484 20.832C199.532 21.088 199.572 21.344 199.604 21.6C199.652 21.856 199.692 22.104 199.724 22.344C199.756 22.568 199.788 22.792 199.82 23.016C199.868 23.24 199.908 23.448 199.94 23.64C199.508 23.752 199.1 23.848 198.716 23.928C198.332 24.008 197.932 24.064 197.516 24.096C197.116 24.144 196.66 24.168 196.148 24.168C195.3 24.168 194.556 24.088 193.916 23.928C193.292 23.768 192.756 23.544 192.308 23.256C191.876 22.952 191.524 22.592 191.252 22.176C190.98 21.744 190.78 21.272 190.652 20.76C190.54 20.248 190.484 19.696 190.484 19.104C190.484 18.576 190.484 17.968 190.484 17.28C190.484 16.592 190.492 15.88 190.508 15.144C190.524 14.392 190.532 13.624 190.532 12.84C190.532 12.056 190.54 11.288 190.556 10.536C190.572 9.768 190.572 9.04 190.556 8.352C190.556 7.648 190.556 7 190.556 6.408ZM208.791 24.312C207.879 24.312 207.039 24.208 206.271 24C205.503 23.808 204.823 23.512 204.231 23.112C203.639 22.712 203.135 22.216 202.719 21.624C202.303 21.016 201.983 20.312 201.759 19.512C201.551 18.696 201.447 17.776 201.447 16.752C201.447 15.44 201.615 14.304 201.951 13.344C202.303 12.384 202.799 11.6 203.439 10.992C204.095 10.368 204.879 9.904 205.791 9.6C206.703 9.296 207.727 9.144 208.863 9.144C209.807 9.144 210.639 9.24 211.359 9.432C212.095 9.624 212.719 9.896 213.231 10.248C213.743 10.6 214.151 11.024 214.455 11.52C214.759 12.016 214.983 12.584 215.127 13.224C215.271 13.848 215.343 14.528 215.343 15.264C215.343 15.632 215.343 15.968 215.343 16.272C215.343 16.576 215.335 16.856 215.319 17.112C215.303 17.368 215.287 17.608 215.271 17.832C214.967 17.832 214.599 17.832 214.167 17.832C213.751 17.816 213.295 17.8 212.799 17.784C212.319 17.768 211.815 17.768 211.287 17.784C210.775 17.784 210.239 17.784 209.679 17.784C209.023 17.784 208.391 17.784 207.783 17.784C207.175 17.768 206.607 17.768 206.079 17.784C205.551 17.8 205.095 17.808 204.711 17.808L204.831 15.672C205.231 15.672 205.647 15.68 206.079 15.696C206.511 15.696 206.959 15.696 207.423 15.696C207.887 15.696 208.335 15.704 208.767 15.72C209.215 15.72 209.655 15.712 210.087 15.696C210.519 15.68 210.927 15.672 211.311 15.672C211.695 15.656 212.055 15.656 212.391 15.672L211.575 16.392C211.607 16.264 211.639 16.096 211.671 15.888C211.703 15.664 211.719 15.36 211.719 14.976C211.719 14.48 211.663 14.056 211.551 13.704C211.439 13.336 211.263 13.032 211.023 12.792C210.783 12.552 210.471 12.376 210.087 12.264C209.719 12.136 209.263 12.072 208.719 12.072C208.127 12.072 207.607 12.152 207.159 12.312C206.727 12.472 206.359 12.736 206.055 13.104C205.751 13.456 205.527 13.952 205.383 14.592C205.239 15.232 205.167 16.032 205.167 16.992C205.167 17.808 205.239 18.504 205.383 19.08C205.543 19.64 205.767 20.088 206.055 20.424C206.359 20.76 206.743 21 207.207 21.144C207.671 21.288 208.215 21.36 208.839 21.36C209.271 21.36 209.655 21.336 209.991 21.288C210.327 21.24 210.607 21.16 210.831 21.048C211.055 20.92 211.231 20.776 211.359 20.616C211.487 20.44 211.583 20.248 211.647 20.04C211.711 19.816 211.743 19.576 211.743 19.32C211.919 19.336 212.095 19.352 212.271 19.368C212.463 19.368 212.671 19.376 212.895 19.392C213.119 19.408 213.343 19.416 213.567 19.416C213.935 19.416 214.263 19.408 214.551 19.392C214.855 19.36 215.111 19.336 215.319 19.32C215.351 19.832 215.327 20.312 215.247 20.76C215.183 21.208 215.055 21.624 214.863 22.008C214.671 22.376 214.415 22.704 214.095 22.992C213.791 23.28 213.391 23.52 212.895 23.712C212.399 23.904 211.815 24.048 211.143 24.144C210.471 24.256 209.687 24.312 208.791 24.312Z" fill="black"/>
<path d="M7.70883 28.5523C6.35819 27.3134 5.9639 24.7103 6.52661 22.8245C7.50233 24.0135 8.85426 24.3901 10.2546 24.6027C12.4164 24.9308 14.5395 24.8081 16.5477 23.8166C16.7774 23.7031 16.9897 23.5522 17.2407 23.3993C17.4292 23.9478 17.4782 24.5017 17.4124 25.0653C17.2524 26.4381 16.5716 27.4985 15.4887 28.3023C15.0557 28.6238 14.5975 28.9112 14.1503 29.2144C12.7765 30.1462 12.4048 31.2387 12.921 32.828C12.9333 32.8667 12.9443 32.9054 12.972 32.9999C12.2705 32.6849 11.7582 32.2263 11.3678 31.6232C10.9554 30.9867 10.7592 30.2826 10.7489 29.5208C10.7437 29.1501 10.7437 28.776 10.694 28.4106C10.5727 27.5195 10.1559 27.1205 9.37051 27.0975C8.56451 27.0739 7.92694 27.5739 7.75787 28.3613C7.74497 28.4217 7.72625 28.4814 7.70754 28.5516L7.70883 28.5523Z" fill="black"/>
<path d="M0 22.5103C0 22.5103 3.99947 20.5552 8.01012 20.5552L11.034 11.1646C11.1472 10.7105 11.4778 10.4019 11.8509 10.4019C12.2241 10.4019 12.5547 10.7105 12.6679 11.1646L15.6918 20.5552C20.4418 20.5552 23.7019 22.5103 23.7019 22.5103C23.7019 22.5103 16.9085 3.93991 16.8952 3.90265C16.7002 3.35361 16.3711 3 15.9273 3H7.77531C7.33154 3 7.01567 3.35361 6.80741 3.90265C6.79274 3.9392 0 22.5103 0 22.5103Z" fill="black"/>
</svg>
